<svg width="24" height="24" viewBox="0 0 24 24" fill="none" xmlns="http://www.w3.org/2000/svg">
<path d="M21 8.14286H14.0391L17.3634 4.81864L15.5447 3L10.7143 7.83107V3H8.14286V9.96086L4.81864 6.63664L3 8.45529L7.83107 13.2857H3V15.8571H9.96086L6.63664 19.1814L8.45464 21L13.2857 16.1689V21H15.8571V14.0391L19.1814 17.3634L21 15.5454L16.1689 10.7143H21V8.14286Z" stroke="white" stroke-width="2" stroke-linejoin="bevel"/>
<path d="M11 12C11 11.4477 11.4477 11 12 11C12.5523 11 13 11.4477 13 12C13 12.5523 12.5523 13 12 13C11.4477 13 11 12.5523 11 12Z" stroke="white" stroke-width="2" stroke-linejoin="bevel"/>
</svg>
