<svg width="24" height="24" viewBox="0 0 24 24" fill="none" xmlns="http://www.w3.org/2000/svg">
<path d="M20.7827 7.86169C20.9264 9.22281 21 10.6033 21 12C21 13.3967 20.9264 14.7772 20.7827 16.1383M17.3643 8.8963C17.4541 9.91971 17.4999 10.9548 17.4999 12C17.4999 13.0452 17.4541 14.0804 17.3643 15.1038M13.4774 6.28382C13.821 8.14068 14.0002 10.0507 14.0002 12C14.0002 13.9493 13.821 15.8593 13.4774 17.7162L12.9474 19L11.8059 18.3423L9.0717 16.5194C8.69982 16.2715 8.25524 16.1383 7.7994 16.1383H5.20003H3V14.0692V9.93085V7.86169H7.7994C8.25524 7.86169 8.69982 7.72852 9.0717 7.48059L11.8059 5.65768L12.9474 5L13.4774 6.28382Z" stroke="white" stroke-width="2.25" stroke-linecap="square" stroke-linejoin="bevel"/>
</svg>
